<svg width="1024" height="1024" viewBox="0 0 1024 1024" fill="none" xmlns="http://www.w3.org/2000/svg">
<rect width="1024" height="1024" rx="250" fill="url(#paint0_linear_701_44)"/>
<circle cx="512" cy="512" r="426.667" fill="white"/>
<circle cx="512" cy="512" r="341.333" stroke="#888888" stroke-width="40" stroke-linecap="round" stroke-dasharray="80 80"/>
<path d="M400.793 616.807C470.82 771.895 514.832 854 514.832 854C514.832 854 552.18 771.895 622.207 616.807C674.298 501.442 652.352 335.05 511.5 334.005C370.648 335.05 348.702 501.442 400.793 616.807Z" fill="#25D916"/>
<path d="M512.836 334C370.787 334 348.538 501.078 400.793 616.807C470.82 771.895 514.832 854 514.832 854C514.832 854 552.18 771.895 622.207 616.807C674.462 501.078 652.213 334 510.164 334" stroke="#0D7304" stroke-width="30" stroke-linecap="round" stroke-linejoin="round"/>
<path d="M579 490C579 527.003 549.003 557 512 557C474.997 557 445 527.003 445 490C445 452.997 474.997 423 512 423C549.003 423 579 452.997 579 490Z" fill="white" stroke="#888888" stroke-width="16"/>
<defs>
<linearGradient id="paint0_linear_701_44" x1="512" y1="0" x2="512" y2="1024" gradientUnits="userSpaceOnUse">
<stop stop-color="#97F688"/>
<stop offset="1" stop-color="#65D65C"/>
</linearGradient>
</defs>
</svg>
